PathFileType	4	(X/Y/Z)	C:\Users\WrightLab\Desktop\Jo\P3_32.trc
DataRate	CameraRate	NumFrames	NumMarkers	Units	OrigDataRate	OrigDataStartFrame	OrigNumFrames
100.00	100.00	       18	19	mm	100.00	84	       671
Frame#	Time	Headset_Front			Headset_Back			Headset_Left			Headset_Right			Left_Shoulder			Right_Shoulder			Sternum			C7			Left Elbow			Right Elbow			Left Wrist			Right Wrist			Left ASIS			Right ASIS			S2			Left Knee			Right Knee			Left Ankle			Right Ankle			
		X1	Y1	Z1	X2	Y2	Z2	X3	Y3	Z3	X4	Y4	Z4	X5	Y5	Z5	X6	Y6	Z6	X7	Y7	Z7	X8	Y8	Z8	X9	Y9	Z9	X10	Y10	Z10	X11	Y11	Z11	X12	Y12	Z12	X13	Y13	Z13	X14	Y14	Z14	X15	Y15	Z15	X16	Y16	Z16	X17	Y17	Z17	X18	Y18	Z18	X19	Y19	Z19	

84	0.830	-723.62598	56.20851	-1819.51794																						-321.20175	964.09546	-1749.01733							-825.15607	777.85889	-1625.02600													-725.89240	387.91605	-1756.88354							
85	0.840	-723.68213	56.11563	-1819.75195																						-321.21918	964.20978	-1748.59045							-825.44263	777.48743	-1626.11096													-725.92377	387.91736	-1757.02527							
86	0.850	-723.73193	55.99374	-1819.94934																						-321.22348	964.30255	-1748.24158							-825.72614	777.11670	-1627.18335													-725.13678	386.95227	-1761.61133							
87	0.860	-723.78058	55.93481	-1820.15808																						-321.19681	964.40833	-1747.83557							-826.39661	778.01239	-1624.37378													-724.78296	386.24710	-1764.27502							
88	0.870	-723.80505	55.87574	-1820.25513																						-321.16077	964.52014	-1747.40442							-826.04108	776.60687	-1628.35010	-472.26678	809.80933	-1637.50085										-724.71014	386.43539	-1763.99500							
89	0.880	-723.76563	55.94655	-1820.09229																						-321.12482	964.63745	-1746.95239							-826.20160	776.36292	-1628.94873	-472.13046	809.89001	-1636.82642										-724.16943	386.38547	-1765.62073							
90	0.890	-723.64465	56.60993	-1820.98718																						-321.08542	964.75433	-1746.50110							-826.19965	776.26788	-1628.91699	-472.06497	809.86877	-1636.49109										-724.01367	386.65384	-1764.98694							
91	0.900	-723.68091	56.55861	-1821.14087																						-321.03043	964.87250	-1746.04114							-825.87292	774.82013	-1631.51050	-471.99103	809.88489	-1636.12012										-723.85095	386.81821	-1764.29456							
92	0.910	-723.70013	56.54163	-1821.22522																						-320.98468	964.99323	-1745.57373							-825.84106	774.71808	-1631.35413	-471.86087	809.88031	-1635.46033										-723.56647	387.22382	-1763.11523							
93	0.920	-723.68262	56.54325	-1821.14453																						-320.88071	965.13330	-1745.01794							-825.77466	774.68317	-1631.07227	-471.73453	809.94257	-1634.83252										-723.29114	387.51126	-1761.94568							
94	0.930	-723.67444	56.54362	-1821.10669																						-320.30786	964.61194	-1743.35168							-825.60107	774.79614	-1630.38684	-471.53079	810.14465	-1633.83936										-723.00287	387.85562	-1760.73303							
95	0.940	-723.66132	56.59384	-1821.05981																						-320.13351	964.77881	-1742.67676							-825.07220	774.30585	-1633.14087	-470.95032	809.40057	-1635.15845										-722.13300	387.41907	-1760.82739							
96	0.950	-723.54205	56.77170	-1820.55688																						-320.01007	964.93970	-1742.03809							-824.27148	773.39508	-1635.51660	-470.65851	808.75018	-1635.03577										-721.70819	386.81299	-1760.18018							
97	0.960	-723.46625	56.88625	-1820.23767																						-319.38055	961.53644	-1735.12939							-823.82239	772.32898	-1636.49341	-469.45007	807.18896	-1638.30627										-721.14099	385.98349	-1760.69250							
98	0.970	-723.17059	55.02911	-1820.73206																						-319.15350	961.74719	-1734.27783							-823.56659	772.51666	-1635.48621	-468.89517	807.85565	-1635.61768										-720.85767	386.33121	-1759.50159							
99	0.980	-722.97296	56.00599	-1820.86829																						-318.90158	961.96912	-1733.37781							-823.02753	772.97247	-1633.37866	-467.82904	808.77405	-1634.15881										-719.96539	385.69611	-1761.12073							
100	0.990	-722.86847	56.18906	-1820.43481																						-318.63037	962.18390	-1732.49976							-822.53326	773.42206	-1631.45447	-466.19876	808.13379	-1635.77478										-719.89679	385.07852	-1759.89526							
101	1.000	-722.72028	56.42808	-1819.81445																						-318.30008	962.41284	-1731.55322							-822.04846	773.88690	-1629.57324	-465.54941	808.84039	-1632.60754										-719.67456	385.29318	-1758.94580							
